<?xml version="1.0" encoding="UTF-8"?>
<svg width="40px" height="35px" viewBox="0 0 40 35" version="1.1" xmlns="http://www.w3.org/2000/svg" xmlns:xlink="http://www.w3.org/1999/xlink">
    <!-- Generator: Sketch 59.1 (86144) - https://sketch.com -->
    <title>Group 15</title>
    <desc>Created with Sketch.</desc>
    <g id="Symbols" stroke="none" stroke-width="1" fill="none" fill-rule="evenodd">
        <g id="Group-15" fill="#0074D9" fill-rule="nonzero">
            <path d="M20,2.5 C16.8229163,2.5 13.8932288,3.11197877 11.2109375,4.3359375 C8.52864623,5.55989623 6.40625,7.2265625 4.84375,9.3359375 C3.28125,11.4453125 2.5,13.75 2.5,16.25 C2.5,19.21875 3.64583373,21.9270837 5.9375,24.375 L7.03125,25.546875 L6.484375,27.03125 C5.80729127,28.8020837 4.73958373,30.5989587 3.28125,32.421875 C6.09375,32.1614587 8.77604127,31.1458337 11.328125,29.375 L12.34375,28.59375 L13.515625,28.984375 C15.5989587,29.6614587 17.7604163,30 20,30 C23.1770837,30 26.1067712,29.3880212 28.7890625,28.1640625 C31.4713538,26.9401038 33.59375,25.2734375 35.15625,23.1640625 C36.71875,21.0546875 37.5,18.75 37.5,16.25 C37.5,13.75 36.71875,11.4453125 35.15625,9.3359375 C33.59375,7.2265625 31.4713538,5.55989623 28.7890625,4.3359375 C26.1067712,3.11197877 23.1770837,2.5 20,2.5 Z M20,0 C23.6458337,0 26.9921875,0.729166269 30.0390625,2.1875 C33.0859375,3.64583373 35.5078125,5.61197877 37.3046875,8.0859375 C39.1015625,10.5598962 40,13.28125 40,16.25 C40,19.21875 39.1015625,21.9401038 37.3046875,24.4140625 C35.5078125,26.8880212 33.0859375,28.8541663 30.0390625,30.3125 C26.9921875,31.7708337 23.6458337,32.5 20,32.5 C17.5520837,32.5 15.1302087,32.1354163 12.734375,31.40625 C9.34895873,33.8020837 5.72916627,35 1.875,35 C1.51041627,35 1.171875,34.8958337 0.859375,34.6875 C0.546875,34.4791663 0.3125,34.2057288 0.15625,33.8671875 C0,33.5286462 -0.0390625,33.1770837 0.0390625,32.8125 C0.1171875,32.4479163 0.2734375,32.1484375 0.5078125,31.9140625 C0.7421875,31.6796875 1.19791627,31.09375 1.875,30.15625 C2.91666627,28.75 3.671875,27.3958337 4.140625,26.09375 C1.38020873,23.1770837 0,19.8958337 0,16.25 C0,13.28125 0.8984375,10.5598962 2.6953125,8.0859375 C4.4921875,5.61197877 6.9140625,3.64583373 9.9609375,2.1875 C13.0078125,0.729166269 16.3541663,0 20,0 Z" id="c" transform="translate(20.000000, 17.500000) scale(-1, 1) translate(-20.000000, -17.500000) "></path>
            <path d="M20.525,8 C21.4208335,8 22.290625,8.21354151 23.134375,8.640625 C23.978125,9.06770849 24.6604165,9.63541651 25.18125,10.34375 C25.74375,11.1145835 26.025,11.9375 26.025,12.8125 C26.025,13.5 25.8791665,14.1041665 25.5875,14.625 C25.3375,15.0625 24.99375,15.4583335 24.55625,15.8125 C24.3395832,15.9791668 24.0362498,16.1791667 23.6462499,16.4125 L23.0120868,16.7843492 C22.7517563,16.941374 22.5685607,17.0653409 22.4625,17.15625 C22.2125,17.3645835 22.0875,17.5833335 22.0875,17.8125 L22.0875,18 C22.0875,18.2083335 22.0145835,18.3854165 21.86875,18.53125 C21.7229165,18.6770835 21.5458335,18.75 21.3375,18.75 L19.0875,18.75 C18.8791665,18.75 18.7020835,18.6770835 18.55625,18.53125 C18.4104165,18.3854165 18.3375,18.2083335 18.3375,18 L18.3375,17.6875 C18.3375,16.8541665 18.6083335,16.1458335 19.15,15.5625 C19.4833335,15.2291665 20.0458335,14.84375 20.8375,14.40625 L20.9,14.375 C21.415625,14.0885417 21.7736979,13.8546007 21.9742187,13.6731771 L22.025,13.625 C22.2958335,13.375 22.43125,13.09375 22.43125,12.78125 C22.43125,12.3534721 22.2225462,11.9982869 21.8051389,11.7156944 L21.7125,11.65625 C21.275,11.3645835 20.7958335,11.21875 20.275,11.21875 C19.7125,11.21875 19.2333335,11.3541665 18.8375,11.625 C18.525,11.8333335 18.1395835,12.2083335 17.68125,12.75 C17.55625,12.9166665 17.3947915,13.015625 17.196875,13.046875 C16.9989585,13.078125 16.8166665,13.03125 16.65,12.90625 L15.30625,11.875 C15.1395835,11.75 15.040625,11.5885415 15.009375,11.390625 C14.978125,11.1927085 15.025,11.0104165 15.15,10.84375 C15.8166665,9.90625 16.55625,9.20833349 17.36875,8.75 C18.2645835,8.25 19.3166665,8 20.525,8 Z M20.2125,19.65625 C20.8166665,19.65625 21.3270835,19.8697915 21.74375,20.296875 C22.1604165,20.7239585 22.36875,21.234375 22.36875,21.828125 C22.36875,22.421875 22.1604165,22.9322915 21.74375,23.359375 C21.3270835,23.7864585 20.8166665,24 20.2125,24 C19.6083335,24 19.0979165,23.7864585 18.68125,23.359375 C18.2645835,22.9322915 18.05625,22.421875 18.05625,21.828125 C18.05625,21.234375 18.2645835,20.7239585 18.68125,20.296875 C19.0979165,19.8697915 19.6083335,19.65625 20.2125,19.65625 Z" id="q"></path>
        </g>
    </g>
</svg>